{"title":"National.Geographic.Living.with.Lions.WEBRip.P2P4FREE","uid":8538011,"size":227574708,"categoryP":"video","categoryS":"tv_shows","magnet":"?xt=urn:btih:4276150eb047420f10f843e210897d6d8bb69276&amp;dn=National.Geographic.Living.with.Lions.WEBRip.P2P4FREE&amp;tr=udp%3A%2F%2Ftracker.openbittorrent.com%3A80&amp;tr=udp%3A%2F%2Fopen.demonii.com%3A1337&amp;tr=udp%3A%2F%2Ftracker.coppersurfer.tk%3A6969&amp;tr=udp%3A%2F%2Fexodus.desync.com%3A6969","seeders":1,"leechers":1,"uploader":"P2P4FREE","files":1,"time":1370310852,"description":"General\n-----------------------------------------------------------------\nFormat                                   : MPEG-4\nFormat profile                           : Base Media / Version 2\nCodec ID                                 : mp42\nFile size                                : 217 MiB\nDuration                                 : 45mn 20s\nOverall bit rate mode                    : Variable\nOverall bit rate                         : 669 Kbps\n\nVideo\n-----------------------------------------------------------------\nID                                       : 1\nFormat                                   : AVC\nFormat/Info                              : Advanced Video Codec\nFormat profile                           : &lt;a class=&quot;__cf_email__&quot; href=&quot;/cdn-cgi/l/email-protection&quot; data-cfemail=&quot;22604351474e4b4c47626e110c12&quot;&gt;[email&amp;#160;protected]&lt;/a&gt;&lt;script cf-hash='f9e31' type=&quot;text/javascript&quot;&gt;\n/* &lt;![CDATA[ */!function(){try{var t=&quot;currentScript&quot;in document?document.currentScript:function(){for(var t=document.getElementsByTagName(&quot;script&quot;),e=t.length;e--;)if(t[e].getAttribute(&quot;cf-hash&quot;))return t[e]}();if(t&amp;&amp;t.previousSibling){var e,r,n,i,c=t.previousSibling,a=c.getAttribute(&quot;data-cfemail&quot;);if(a){for(e=&quot;&quot;,r=parseInt(a.substr(0,2),16),n=2;a.length-n;n+=2)i=parseInt(a.substr(n,2),16)^r,e+=String.fromCharCode(i);e=document.createTextNode(e),c.parentNode.replaceChild(e,c)}}}catch(u){}}();/* ]]&gt; */&lt;/script&gt;\nFormat settings, CABAC                   : No\nFormat settings, ReFrames                : 1 frame\nCodec ID                                 : avc1\nCodec ID/Info                            : Advanced Video Coding\nDuration                                 : 45mn 20s\nBit rate                                 : 571 Kbps\nMaximum bit rate                         : 2 136 Kbps\nWidth                                    : 640 pixels\nHeight                                   : 360 pixels\nDisplay aspect ratio                     : 16:9\nFrame rate mode                          : Constant\nFrame rate                               : 25.000 fps\nColor space                              : YUV\nChroma subsampling                       : 4:2:0\nBit depth                                : 8 bits\nScan type                                : Progressive\nBits/(Pixel*Frame)                       : 0.099\nStream size                              : 185 MiB (85%)\n\nAudio\n-----------------------------------------------------------------\nID                                       : 2\nFormat                                   : AAC\nFormat/Info                              : Advanced Audio Codec\nFormat profile                           : LC\nCodec ID                                 : 40\nDuration                                 : 45mn 20s\nBit rate mode                            : Variable\nBit rate                                 : 96.0 Kbps\nMaximum bit rate                         : 104 Kbps\nChannel(s)                               : 2 channels\nChannel positions                        : Front: L R\nSampling rate                            : 44.1 KHz\nCompression mode                         : Lossy\nStream size                              : 31.1 MiB (14%)\n-----------------------------------------------------------------\n\nSCREENS\n----------------------------------------------------------------- &lt;a href=&quot;\nhttp://share.pho.to/2Sth1/original&quot; rel=&quot;nofollow&quot; target=&quot;_NEW&quot;&gt;\nhttp://share.pho.to/2Sth1/original&lt;/a&gt; &lt;a href=&quot;\nhttp://share.pho.to/2Sth2/original&quot; rel=&quot;nofollow&quot; target=&quot;_NEW&quot;&gt;\nhttp://share.pho.to/2Sth2/original&lt;/a&gt; &lt;a href=&quot;\nhttp://share.pho.to/2Sth3/original&quot; rel=&quot;nofollow&quot; target=&quot;_NEW&quot;&gt;\nhttp://share.pho.to/2Sth3/original&lt;/a&gt; &lt;a href=&quot;\nhttp://share.pho.to/2Sth4/original&quot; rel=&quot;nofollow&quot; target=&quot;_NEW&quot;&gt;\nhttp://share.pho.to/2Sth4/original&lt;/a&gt; &lt;a href=&quot;\nhttp://share.pho.to/2Sth5/original&quot; rel=&quot;nofollow&quot; target=&quot;_NEW&quot;&gt;\nhttp://share.pho.to/2Sth5/original&lt;/a&gt; &lt;a href=&quot;\nhttp://share.pho.to/2Sth6/original&quot; rel=&quot;nofollow&quot; target=&quot;_NEW&quot;&gt;\nhttp://share.pho.to/2Sth6/original&lt;/a&gt; &lt;a href=&quot;\nhttp://share.pho.to/2Sth7/original&quot; rel=&quot;nofollow&quot; target=&quot;_NEW&quot;&gt;\nhttp://share.pho.to/2Sth7/original&lt;/a&gt;\n-----------------------------------------------------------------\n\nEnjoy ;)\n","torrent":{"xt":"urn:btih:4276150eb047420f10f843e210897d6d8bb69276","amp;dn":"National.Geographic.Living.with.Lions.WEBRip.P2P4FREE","amp;tr":["udp%3A%2F%2Ftracker.openbittorrent.com%3A80","udp%3A%2F%2Fopen.demonii.com%3A1337","udp%3A%2F%2Ftracker.coppersurfer.tk%3A6969","udp%3A%2F%2Fexodus.desync.com%3A6969"],"infoHash":"4276150eb047420f10f843e210897d6d8bb69276","infoHashBuffer":{"type":"Buffer","data":[66,118,21,14,176,71,66,15,16,248,67,226,16,137,125,109,139,182,146,118]},"announce":[],"urlList":[]}}